<svg xmlns="http://www.w3.org/2000/svg" version="1.1" width="24.42446042443587" height="32.15107915112827"><rect id="backgroundrect" width="100%" height="100%" x="0" y="0" fill="none" stroke="none" style="" class=""/>
<title>droplet</title>

<g class="currentLayer" style=""><title>Layer 1</title><path d="M23.278992671966556,14.642115102767944 c-2.055,-5.732 -6.41,-10.88 -11.02,-14.786 c-4.61,3.907 -8.965,9.054 -11.02,14.786 c-1.271,3.545 -1.3960000000000001,7.393 0.39300000000000196,10.794 c2.058,3.911 6.207,6.42 10.626,6.42 s8.569,-2.509 10.626,-6.42 c1.79,-3.401 1.6640000000000001,-7.249 0.39300000000000196,-10.794 zM19.34499267196655,23.573115102767943 c-1.369,2.6020000000000003 -4.15,4.283 -7.086,4.283 c-1.723,0 -3.391,-0.5790000000000006 -4.753,-1.5830000000000002 c0.4140000000000003,0.054000000000000374 0.8320000000000006,0.08300000000000052 1.254,0.08300000000000052 c3.67,0 7.146,-2.1 8.856,-5.351 c1.4020000000000001,-2.665 1.2810000000000001,-5.433 0.7460000000000034,-7.636 c0.455,0.8800000000000034 0.8410000000000006,1.7560000000000002 1.151,2.623 c0.7060000000000006,1.971 1.251,4.886 -0.16800000000000123,7.581 z" id="svg_1" class="selected" fill="#525a5d" fill-opacity="1"/></g></svg>