<svg xmlns="http://www.w3.org/2000/svg" version="1.1" width="26.244604244358527" height="26.244604244358527" style=""><rect id="backgroundrect" width="100%" height="100%" x="0" y="0" fill="none" stroke="none" style="" class=""/>
<title>sun</title>

<g class="currentLayer" style=""><title>Layer 1</title><path d="M13.122302055358887,6.266186952590943 c-3.859,0 -7,3.141 -7,7 s3.141,7 7,7 s7,-3.141 7,-7 c0,-3.859 -3.141,-7 -7,-7 zM13.122302055358887,4.266186952590943 c0.552,0 1,-0.44700000000000245 1,-1 v-2 c0,-0.552 -0.44800000000000245,-1 -1,-1 c-0.553,0 -1,0.44800000000000245 -1,1 v2 c0,0.553 0.44700000000000245,1 1,1 zM13.122302055358887,22.266186952590942 c-0.553,0 -1,0.44800000000000245 -1,1 v2 c0,0.553 0.44700000000000245,1 1,1 c0.552,0 1,-0.44700000000000245 1,-1 v-2 c0,-0.552 -0.44800000000000245,-1 -1,-1 zM20.898302055358887,6.901186952590942 l1.4140000000000001,-1.4140000000000001 c0.39100000000000246,-0.39100000000000246 0.39100000000000246,-1.023 0,-1.4140000000000001 s-1.023,-0.39100000000000246 -1.4140000000000001,0 l-1.4140000000000001,1.4140000000000001 c-0.39100000000000246,0.39100000000000246 -0.39100000000000246,1.023 0,1.4140000000000001 s1.023,0.39100000000000246 1.4140000000000001,0 zM5.343302055358887,19.632186952590942 l-1.4140000000000001,1.4140000000000001 c-0.39100000000000246,0.39100000000000246 -0.39100000000000246,1.023 0,1.4140000000000001 s1.023,0.39100000000000246 1.4140000000000001,0 l1.4140000000000001,-1.4140000000000001 c0.39100000000000246,-0.39300000000000246 0.39100000000000246,-1.023 0,-1.4140000000000001 s-1.023,-0.39300000000000246 -1.4140000000000001,0 zM4.122302055358888,13.266186952590942 c0,-0.552 -0.44800000000000245,-1 -1,-1 h-2 c-0.553,0 -1,0.44800000000000245 -1,1 c0,0.553 0.44700000000000245,1 1,1 h2 c0.552,0 1,-0.44700000000000245 1,-1 zM25.122302055358887,12.266186952590942 h-2 c-0.553,0 -1,0.44800000000000245 -1,1 c0,0.553 0.44700000000000245,1 1,1 h2 c0.552,0 1,-0.44700000000000245 1,-1 c0,-0.552 -0.44800000000000245,-1 -1,-1 zM5.342302055358887,6.901186952590942 c0.39100000000000246,0.39100000000000246 1.023,0.39100000000000246 1.4140000000000001,0 s0.39100000000000246,-1.023 0,-1.4140000000000001 l-1.4140000000000001,-1.4140000000000001 c-0.39100000000000246,-0.39100000000000246 -1.024,-0.39100000000000246 -1.4140000000000001,0 s-0.39100000000000246,1.023 0,1.4140000000000001 l1.4140000000000001,1.4140000000000001 zM20.901302055358887,19.629186952590942 c-0.39300000000000246,-0.39100000000000246 -1.023,-0.39100000000000246 -1.4140000000000001,0 s-0.39300000000000246,1.023 0,1.4140000000000001 l1.4140000000000001,1.4140000000000001 c0.39100000000000246,0.39100000000000246 1.023,0.39100000000000246 1.4140000000000001,0 s0.39100000000000246,-1.023 0,-1.4140000000000001 l-1.4140000000000001,-1.4140000000000001 z" id="svg_1" class="selected" fill="#525a5d" fill-opacity="1"/></g></svg>