<svg xmlns="http://www.w3.org/2000/svg" version="1.1" width="26.244604244358527" height="19.050359549806714" style=""><rect id="backgroundrect" width="100%" height="100%" x="0" y="0" fill="none" stroke="none" style="" class=""/>
<title>wind</title>

<g class="currentLayer" style=""><title>Layer 1</title><path d="M23.196992671966555,4.527717590332032 c-1.6560000000000001,0 -3,1.344 -3,3 c0,0.3530000000000003 0.07300000000000002,0.6850000000000009 0.18400000000000016,1 h-19.184 c-0.552,0 -1,0.4480000000000004 -1,1 s0.4480000000000004,1 1,1 h22 c1.6560000000000001,0 3,-1.344 3,-3 s-1.344,-3 -3,-3 zM1.1969926719665553,6.527717590332032 h12 c1.6560000000000001,0 3,-1.344 3,-3 s-1.344,-3 -3,-3 s-3,1.344 -3,3 c0,0.3530000000000003 0.07300000000000002,0.6850000000000009 0.18400000000000016,1 h-9.184 c-0.552,0 -1,0.4480000000000004 -1,1 s0.4480000000000004,1 1,1 zM17.196992671966555,12.527717590332031 c-0.05900000000000006,0 -0.1150000000000001,0.013000000000000018 -0.17400000000000004,0.01800000000000002 c-0.03900000000000004,-0.003000000000000006 -0.07200000000000002,-0.01800000000000002 -0.11100000000000008,-0.01800000000000002 h-15.428 c-0.7110000000000006,0 -1.287,0.4480000000000004 -1.287,1 s0.5760000000000006,1 1.287,1 h12.897 c-0.11100000000000008,0.31500000000000034 -0.18400000000000016,0.6480000000000008 -0.18400000000000016,1 c0,1.6560000000000001 1.344,3 3,3 s3,-1.344 3,-3 s-1.344,-3 -3,-3 z" class="" fill="#525a5d" fill-opacity="1" id="svg_2"/></g></svg>